<svg xmlns="http://www.w3.org/2000/svg" width="758" height="758" fill="none" viewBox="0 0 758 758"><defs><path id="c" d="M367 77.6a32 32 0 0 1 22 0L688 186c10 3.6 16 12.4 16 23v3c-6-7-14-10-23-6.8L389 311.4a32 32 0 0 1-22 0L75 205.2c-9-3.2-17-.2-23 6.8v-3c0-10.6 6-19.4 16-23Z"/></defs><use fill="url(#a)" href="#c"/><use fill="url(#d)" href="#c"/><use fill="url(#e)" href="#c"/><use fill="url(#f)" href="#c"/><path id="h" fill="url(#g)" d="M41 276c0-11.5 10.5-19.3 21.3-15.3L335 362c10.8 4 18 14.3 18 25.8V671c0 12 10 23 25 26l-16.3 7.1a21 21 0 0 1-16.2.8L70 603.2c-17.5-6.5-29-23.2-29-41.9Z"/><use href="#h" transform="matrix(-1 0 0 1 756 0)"/><defs><radialGradient id="d" cx="0" cy="0" r="1" gradientTransform="matrix(398 0 0 289.8 271.5 377.4)" gradientUnits="userSpaceOnUse"><stop offset="0" stop-color="#ffbde4" stop-opacity=".58"/><stop offset=".2" stop-color="#ffbde4" stop-opacity=".45"/><stop offset=".4" stop-color="#ffbde4" stop-opacity=".33"/><stop offset=".6" stop-color="#ffbde4" stop-opacity=".22"/><stop offset=".8" stop-color="#ffbde4" stop-opacity=".11"/><stop offset="1" stop-color="#ffbde4" stop-opacity="0"/></radialGradient><radialGradient id="e" cx="0" cy="0" r="1" gradientTransform="matrix(301.3 0 0 263 0 145)" gradientUnits="userSpaceOnUse"><stop stop-color="#ffd722" stop-opacity=".2"/><stop offset="1" stop-color="#ffd722" stop-opacity="0"/></radialGradient><radialGradient id="f" gradientTransform="matrix(301.3 0 0 263 756 145)" href="#e"/><radialGradient id="g" cx="0" cy="0" r="1" gradientTransform="matrix(353 0 0 329.9 79.8 598)" gradientUnits="userSpaceOnUse"><stop stop-color="#5a3991"/><stop offset=".2" stop-color="#5f3d9a"/><stop offset=".4" stop-color="#6943ab"/><stop offset=".6" stop-color="#774cc1"/><stop offset=".75" stop-color="#8354d4"/><stop offset=".86" stop-color="#8c5ae4"/><stop offset="1" stop-color="#9462ec"/></radialGradient><linearGradient id="a" x2="0" y1="0" y2="330" gradientUnits="userSpaceOnUse"><stop stop-color="#ffb85c"/><stop offset="1" stop-color="#ff572c"/></linearGradient></defs></svg>
